<svg width="22" height="20" viewBox="0 0 22 20" fill="none" xmlns="http://www.w3.org/2000/svg">
<path d="M21.1015 18.2109L16.0528 13.6094C17.3042 12.2188 18.0586 10.4375 18.0586 8.49609C18.0586 4.04297 14.0941 0.429688 9.2082 0.429688C4.31801 0.429688 0.357849 4.04297 0.357849 8.49609C0.357849 12.9492 4.31801 16.5625 9.2082 16.5625C11.3383 16.5625 13.2884 15.8789 14.8141 14.7383L19.8629 19.3359C20.2058 19.6484 20.7587 19.6484 21.1015 19.3359C21.4444 19.0273 21.4444 18.5195 21.1015 18.2109ZM9.2082 14.957C5.29519 14.957 2.11506 12.0586 2.11506 8.49609C2.11506 4.93359 5.29519 2.03125 9.2082 2.03125C13.1169 2.03125 16.3013 4.93359 16.3013 8.49609C16.3013 12.0586 13.1169 14.957 9.2082 14.957Z" fill="#718EBF"/>
</svg>
