<svg width="40" height="40" viewBox="0 0 40 40" fill="none" xmlns="http://www.w3.org/2000/svg">
<rect x="2" y="2" width="36" height="36" rx="18" fill="#FCDAD7"/>
<rect x="2" y="2" width="36" height="36" rx="18" stroke="#FEEDEC" stroke-width="4"/>
<path d="M16 15H20M16 19H24M16 23H24M13 10H27C28.1046 10 29 10.8954 29 12V27.1543C29 28.5396 27.6259 29.5053 26.3226 29.0361L24.7608 28.4739C24.2728 28.2982 23.7356 28.319 23.2626 28.5318L20.8207 29.6307C20.2988 29.8655 19.7012 29.8655 19.1793 29.6307L16.7374 28.5318C16.2644 28.319 15.7272 28.2982 15.2392 28.4739L13.6774 29.0361C12.3741 29.5053 11 28.5396 11 27.1543V12C11 10.8954 11.8954 10 13 10Z" stroke="#F04438" stroke-width="1.5" stroke-linecap="round"/>
</svg>
