<svg width="136" height="24" viewBox="0 0 136 24" fill="none" xmlns="http://www.w3.org/2000/svg">
<path d="M11.5245 1.46353C11.6741 1.00287 12.3259 1.00287 12.4755 1.46353L14.5819 7.9463C14.6488 8.15232 14.8408 8.2918 15.0574 8.2918H21.8738C22.3582 8.2918 22.5596 8.9116 22.1677 9.1963L16.6531 13.2029C16.4779 13.3302 16.4046 13.5559 16.4715 13.7619L18.5779 20.2447C18.7276 20.7053 18.2003 21.0884 17.8085 20.8037L12.2939 16.7971C12.1186 16.6698 11.8814 16.6698 11.7061 16.7971L6.19153 20.8037C5.79967 21.0884 5.27243 20.7053 5.42211 20.2447L7.52849 13.7619C7.59543 13.5559 7.5221 13.3302 7.34685 13.2029L1.83227 9.1963C1.44041 8.9116 1.6418 8.2918 2.12616 8.2918H8.94256C9.15917 8.2918 9.35115 8.15232 9.41809 7.9463L11.5245 1.46353Z" fill="#F8B602"/>
<path d="M39.5245 1.46353C39.6741 1.00287 40.3259 1.00287 40.4755 1.46353L42.5819 7.9463C42.6488 8.15232 42.8408 8.2918 43.0574 8.2918H49.8738C50.3582 8.2918 50.5596 8.9116 50.1677 9.1963L44.6531 13.2029C44.4779 13.3302 44.4046 13.5559 44.4715 13.7619L46.5779 20.2447C46.7276 20.7053 46.2003 21.0884 45.8085 20.8037L40.2939 16.7971C40.1186 16.6698 39.8814 16.6698 39.7061 16.7971L34.1915 20.8037C33.7997 21.0884 33.2724 20.7053 33.4221 20.2447L35.5285 13.7619C35.5954 13.5559 35.5221 13.3302 35.3469 13.2029L29.8323 9.1963C29.4404 8.9116 29.6418 8.2918 30.1262 8.2918H36.9426C37.1592 8.2918 37.3512 8.15232 37.4181 7.9463L39.5245 1.46353Z" fill="#F8B602"/>
<path d="M67.5245 1.46353C67.6741 1.00287 68.3259 1.00287 68.4755 1.46353L70.5819 7.9463C70.6488 8.15232 70.8408 8.2918 71.0574 8.2918H77.8738C78.3582 8.2918 78.5596 8.9116 78.1677 9.1963L72.6531 13.2029C72.4779 13.3302 72.4046 13.5559 72.4715 13.7619L74.5779 20.2447C74.7276 20.7053 74.2003 21.0884 73.8085 20.8037L68.2939 16.7971C68.1186 16.6698 67.8814 16.6698 67.7061 16.7971L62.1915 20.8037C61.7997 21.0884 61.2724 20.7053 61.4221 20.2447L63.5285 13.7619C63.5954 13.5559 63.5221 13.3302 63.3469 13.2029L57.8323 9.1963C57.4404 8.9116 57.6418 8.2918 58.1262 8.2918H64.9426C65.1592 8.2918 65.3512 8.15232 65.4181 7.9463L67.5245 1.46353Z" fill="#F8B602"/>
<path d="M95.5245 1.46353C95.6741 1.00287 96.3259 1.00287 96.4755 1.46353L98.5819 7.9463C98.6488 8.15232 98.8408 8.2918 99.0574 8.2918H105.874C106.358 8.2918 106.56 8.9116 106.168 9.1963L100.653 13.2029C100.478 13.3302 100.405 13.5559 100.472 13.7619L102.578 20.2447C102.728 20.7053 102.2 21.0884 101.808 20.8037L96.2939 16.7971C96.1186 16.6698 95.8814 16.6698 95.7061 16.7971L90.1915 20.8037C89.7997 21.0884 89.2724 20.7053 89.4221 20.2447L91.5285 13.7619C91.5954 13.5559 91.5221 13.3302 91.3469 13.2029L85.8323 9.1963C85.4404 8.9116 85.6418 8.2918 86.1262 8.2918H92.9426C93.1592 8.2918 93.3512 8.15232 93.4181 7.9463L95.5245 1.46353Z" fill="#F8B602"/>
<path d="M123.524 1.46353C123.674 1.00287 124.326 1.00287 124.476 1.46353L126.582 7.9463C126.649 8.15232 126.841 8.2918 127.057 8.2918H133.874C134.358 8.2918 134.56 8.9116 134.168 9.1963L128.653 13.2029C128.478 13.3302 128.405 13.5559 128.472 13.7619L130.578 20.2447C130.728 20.7053 130.2 21.0884 129.808 20.8037L124.294 16.7971C124.119 16.6698 123.881 16.6698 123.706 16.7971L118.192 20.8037C117.8 21.0884 117.272 20.7053 117.422 20.2447L119.528 13.7619C119.595 13.5559 119.522 13.3302 119.347 13.2029L113.832 9.1963C113.44 8.9116 113.642 8.2918 114.126 8.2918H120.943C121.159 8.2918 121.351 8.15232 121.418 7.9463L123.524 1.46353Z" fill="#F8B602"/>
</svg>
