<svg width="17" height="17" viewBox="0 0 17 17" fill="none" xmlns="http://www.w3.org/2000/svg">
<path fill-rule="evenodd" clip-rule="evenodd" d="M7.5 8.16699C9.57107 8.16699 11.25 6.48806 11.25 4.41699C11.25 2.34592 9.57107 0.666992 7.5 0.666992C5.42893 0.666992 3.75 2.34592 3.75 4.41699C3.75 6.48806 5.42893 8.16699 7.5 8.16699ZM7.5 6.50033C8.65059 6.50033 9.58333 5.56759 9.58333 4.41699C9.58333 3.2664 8.65059 2.33366 7.5 2.33366C6.34941 2.33366 5.41667 3.2664 5.41667 4.41699C5.41667 5.56759 6.34941 6.50033 7.5 6.50033Z" fill="#667085"/>
<path d="M9.23077 10.667C10.0643 10.667 10.8398 10.9156 11.4871 11.3427C11.8713 11.5961 12.3955 11.6048 12.721 11.2793C13.0464 10.9539 13.0494 10.4206 12.6807 10.1451C11.7185 9.42607 10.5244 9.00033 9.23077 9.00033H5.76923C2.58297 9.00033 0 11.5833 0 14.7696C0 15.7254 0.774892 16.5003 1.73077 16.5003H7.5C7.96024 16.5003 8.33333 16.1272 8.33333 15.667C8.33333 15.2068 7.96024 14.8337 7.5 14.8337H1.73077C1.69537 14.8337 1.66667 14.805 1.66667 14.7696C1.66667 12.5038 3.50345 10.667 5.76923 10.667H9.23077Z" fill="#667085"/>
<path d="M15.8346 12.0501C16.1382 11.7042 16.104 11.1777 15.7581 10.8741C15.4122 10.5704 14.8857 10.6047 14.5821 10.9506L11.8141 14.1039L10.6021 13.1398C10.2419 12.8533 9.71769 12.913 9.43117 13.2732C9.14466 13.6334 9.20437 14.1576 9.56455 14.4442L11.7085 16.1496C11.8824 16.288 12.1344 16.2655 12.281 16.0984L15.8346 12.0501Z" fill="#667085"/>
</svg>
