<svg width="20" height="24" viewBox="0 0 20 24" fill="none" xmlns="http://www.w3.org/2000/svg">
<g clip-path="url(#clip0_7_659)">
<path d="M9.5929 24C7.9566 24 6.62415 22.318 6.62415 20.25C6.62415 19.836 6.89014 19.5 7.2179 19.5C7.54565 19.5 7.81165 19.836 7.81165 20.25C7.81165 21.4911 8.61124 22.5 9.5929 22.5C10.5746 22.5 11.3741 21.4911 11.3741 20.25C11.3741 19.836 11.6401 19.5 11.9679 19.5C12.2956 19.5 12.5616 19.836 12.5616 20.25C12.5616 22.318 11.2293 24 9.5929 24Z" fill="#FE5C73"/>
<path d="M16.1241 21H3.06164C2.29771 21 1.67627 20.215 1.67627 19.2501C1.67627 18.7379 1.85283 18.2531 2.16072 17.92C2.18058 17.898 2.20189 17.8781 2.22407 17.8599C3.3862 16.5789 4.05127 14.736 4.05127 12.7899V9.99994C4.05127 6.14008 6.53789 3 9.59289 3C9.71958 3 9.85657 3.00293 9.98326 3.03003C10.307 3.09796 10.5256 3.48505 10.4716 3.89301C10.4178 4.30096 10.1059 4.57709 9.78844 4.50897C9.72509 4.49597 9.65551 4.5 9.59289 4.5C7.19267 4.5 5.23877 6.96698 5.23877 9.99994V12.7899C5.23877 15.206 4.40033 17.4921 2.9406 19.0609C2.92871 19.073 2.91842 19.084 2.90566 19.095C2.88435 19.129 2.86377 19.181 2.86377 19.2501C2.86377 19.3859 2.95408 19.5 3.06164 19.5H16.1241C16.2318 19.5 16.3222 19.3859 16.3222 19.2501C16.3222 19.1799 16.3016 19.129 16.2794 19.095C16.2675 19.084 16.2572 19.073 16.2453 19.0609C14.7847 17.491 13.9472 15.206 13.9472 12.7899V11.7001C13.9472 11.2861 14.2132 10.9501 14.5409 10.9501C14.8687 10.9501 15.1347 11.2861 15.1347 11.7001V12.7899C15.1347 14.7371 15.8004 16.5809 16.9642 17.863C16.9855 17.881 17.0061 17.9 17.0251 17.9211C17.3331 18.2531 17.5097 18.7379 17.5097 19.2501C17.5097 20.215 16.8882 21 16.1241 21Z" fill="#FE5C73"/>
<path d="M15.1347 9.99994C12.952 9.99994 11.1763 7.75708 11.1763 5.00006C11.1763 2.24304 12.952 0 15.1347 0C17.3173 0 19.0929 2.24304 19.0929 5.00006C19.0929 7.75708 17.3173 9.99994 15.1347 9.99994ZM15.1347 1.5C13.6066 1.5 12.3638 3.06995 12.3638 5.00006C12.3638 6.92999 13.6066 8.49994 15.1347 8.49994C16.6625 8.49994 17.9054 6.92999 17.9054 5.00006C17.9054 3.06995 16.6625 1.5 15.1347 1.5Z" fill="#FE5C73"/>
</g>
<defs>
<clipPath id="clip0_7_659">
<rect width="19" height="24" fill="white" transform="translate(0.896973)"/>
</clipPath>
</defs>
</svg>
